<svg width="81" height="81" viewBox="0 0 81 81" fill="none" xmlns="http://www.w3.org/2000/svg">
<g clip-path="url(#clip0)">
<path d="M50.486 18.1572C50.3861 18.0573 50.2676 17.9781 50.1372 17.9241C50.0068 17.8701 49.867 17.8423 49.7258 17.8423C49.5846 17.8423 49.4448 17.8701 49.3144 17.9241C49.184 17.9781 49.0655 18.0573 48.9657 18.1572L47.9516 19.1697C47.75 19.3713 47.6367 19.6447 47.6367 19.9298C47.6367 20.2149 47.75 20.4884 47.9516 20.69C48.1532 20.8916 48.4266 21.0048 48.7117 21.0048C48.9969 21.0048 49.2703 20.8916 49.4719 20.69L50.4844 19.6775C50.5843 19.5778 50.6636 19.4593 50.7178 19.329C50.772 19.1986 50.7999 19.0588 50.8001 18.9176C50.8002 18.7765 50.7725 18.6366 50.7186 18.5062C50.6648 18.3757 50.5857 18.2571 50.486 18.1572Z" fill="#00C5C5"/>
<path d="M58.3873 29.6026L59.4014 28.5901C59.5012 28.4902 59.5804 28.3717 59.6344 28.2413C59.6885 28.1109 59.7163 27.9711 59.7163 27.8299C59.7163 27.6887 59.6885 27.5489 59.6344 27.4185C59.5804 27.2881 59.5012 27.1696 59.4014 27.0697C59.3016 26.9699 59.1831 26.8907 59.0526 26.8367C58.9222 26.7827 58.7824 26.7549 58.6412 26.7549C58.5001 26.7549 58.3603 26.7827 58.2298 26.8367C58.0994 26.8907 57.9809 26.9699 57.8811 27.0697L56.8686 28.0822C56.7688 28.1821 56.6896 28.3006 56.6355 28.431C56.5815 28.5614 56.5537 28.7012 56.5537 28.8424C56.5537 28.9836 56.5815 29.1234 56.6355 29.2538C56.6896 29.3842 56.7688 29.5027 56.8686 29.6026C56.9684 29.7024 57.0869 29.7816 57.2173 29.8356C57.3478 29.8896 57.4876 29.9174 57.6287 29.9174C57.7699 29.9174 57.9097 29.8896 58.0401 29.8356C58.1706 29.7816 58.2891 29.7024 58.3889 29.6026H58.3873Z" fill="#00C5C5"/>
<path d="M50.7899 22.2589C50.5669 22.9019 50.5295 23.5948 50.6819 24.2581C50.8343 24.9214 51.1703 25.5284 51.6516 26.0097C52.1328 26.4909 52.7399 26.827 53.4032 26.9794C54.0665 27.1318 54.7593 27.0944 55.4024 26.8714C55.6717 26.7765 55.8924 26.5785 56.0157 26.3209C56.1391 26.0633 56.1551 25.7673 56.0602 25.498C55.9653 25.2286 55.7673 25.008 55.5097 24.8846C55.2521 24.7612 54.9561 24.7452 54.6867 24.8401C54.4254 24.9302 54.144 24.945 53.8746 24.8828C53.6053 24.8206 53.3588 24.684 53.1633 24.4886C52.9679 24.2931 52.8313 24.0466 52.7691 23.7773C52.7069 23.5079 52.7217 23.2265 52.8118 22.9651C52.8587 22.8318 52.879 22.6904 52.8714 22.5492C52.8637 22.408 52.8284 22.2697 52.7673 22.1422C52.7062 22.0147 52.6206 21.9004 52.5154 21.8059C52.4101 21.7115 52.2873 21.6387 52.1539 21.5917C51.8846 21.4968 51.5886 21.5128 51.331 21.6362C51.2034 21.6972 51.0892 21.7829 50.9947 21.8881C50.9003 21.9933 50.8275 22.1161 50.7805 22.2495L50.7899 22.2589Z" fill="#00C5C5"/>
<path d="M72.3729 11.6011L65.9573 5.18701C65.0375 4.26624 63.8144 3.71107 62.5158 3.62484C61.2171 3.53861 59.9314 3.92719 58.8979 4.71826C57.2385 5.99013 55.5776 7.30576 53.9589 8.62451C53.844 8.71188 53.748 8.82148 53.6764 8.94677C53.6048 9.07206 53.5592 9.21048 53.5423 9.35377C53.5253 9.49707 53.5374 9.6423 53.5778 9.78083C53.6182 9.91936 53.686 10.0483 53.7773 10.1601C53.8686 10.2718 53.9814 10.364 54.1091 10.4313C54.2368 10.4985 54.3767 10.5393 54.5205 10.5513C54.6643 10.5633 54.809 10.5462 54.9461 10.501C55.0831 10.4559 55.2097 10.3837 55.3182 10.2886C56.9214 8.97763 58.562 7.67919 60.2057 6.41982C60.7645 5.98957 61.4505 5.75758 62.1557 5.76044C62.5802 5.75945 63.0006 5.84263 63.3927 6.00515C63.7848 6.16768 64.1408 6.40634 64.4401 6.70732L70.8557 13.1229C71.1568 13.4222 71.3955 13.7782 71.558 14.1703C71.7206 14.5624 71.8037 14.9829 71.8026 15.4073C71.8048 16.1114 71.5728 16.7963 71.1432 17.3542C66.1417 23.87 60.7528 30.0792 55.0057 35.9479C54.9059 36.0489 54.787 36.129 54.656 36.1837C54.525 36.2384 54.3844 36.2666 54.2425 36.2666C54.1005 36.2666 53.9599 36.2384 53.8289 36.1837C53.6979 36.129 53.579 36.0489 53.4792 35.9479L41.6042 24.0729C41.5032 23.9731 41.4231 23.8542 41.3684 23.7232C41.3137 23.5922 41.2855 23.4516 41.2855 23.3097C41.2855 23.1677 41.3137 23.0271 41.3684 22.8961C41.4231 22.7651 41.5032 22.6462 41.6042 22.5464C44.9604 19.2651 48.4682 16.0542 52.0307 13.0151C52.1427 12.925 52.2355 12.8134 52.3036 12.6869C52.3717 12.5603 52.4137 12.4214 52.4272 12.2783C52.4407 12.1352 52.4253 11.9908 52.382 11.8538C52.3387 11.7167 52.2684 11.5898 52.1752 11.4804C52.082 11.371 51.9678 11.2814 51.8394 11.2169C51.7109 11.1524 51.5709 11.1143 51.4275 11.1048C51.2841 11.0954 51.1402 11.1148 51.0044 11.1619C50.8687 11.2091 50.7437 11.2829 50.637 11.3792C47.0432 14.4479 43.4917 17.6886 40.0995 21.0089C39.7949 21.3071 39.5525 21.6628 39.3864 22.0553C39.2202 22.4479 39.1336 22.8695 39.1316 23.2957C39.1296 23.722 39.2121 24.1444 39.3745 24.5385C39.5369 24.9326 39.7759 25.2906 40.0776 25.5917L43.7339 29.2479L35.5104 37.4714C35.035 37.5631 34.5802 37.7405 34.1682 37.9948C33.5839 38.3526 32.9901 38.7354 32.3932 39.1339C30.7745 36.5136 27.9104 34.9323 24.6479 34.9323C20.9745 34.9323 16.7901 37.1589 15.7214 42.1323C15.2354 44.3917 14.8026 46.7308 14.4323 49.0917C12.5826 50.599 11.093 52.5004 10.0722 54.6571C9.05147 56.8138 8.52535 59.1713 8.53229 61.5573V75.8854C8.53229 76.1705 8.64555 76.444 8.84715 76.6456C9.04876 76.8472 9.32219 76.9604 9.60729 76.9604H39.7042C39.9893 76.9604 40.2627 76.8472 40.4643 76.6456C40.6659 76.444 40.7792 76.1705 40.7792 75.8854V61.5573C40.7861 59.2542 40.2961 56.9766 39.3426 54.8801C38.3892 52.7835 36.9946 50.9173 35.2542 49.4089C36.8241 47.4987 38.2603 45.4824 39.5526 43.3745C39.8074 42.9626 39.9852 42.5078 40.0776 42.0323L48.2995 33.8214L51.9557 37.4776C52.2568 37.7794 52.6148 38.0183 53.0089 38.1807C53.403 38.3431 53.8255 38.4257 54.2517 38.4236C54.678 38.4216 55.0996 38.335 55.4921 38.1689C55.8847 38.0027 56.2403 37.7603 56.5385 37.4558C62.3459 31.5249 67.7911 25.25 72.8448 18.6651C73.6362 17.6318 74.025 16.346 73.9387 15.0472C73.8525 13.7485 73.2971 12.5254 72.376 11.6058L72.3729 11.6011ZM38.6229 61.5682V74.8214H10.6885V61.5698C10.6788 58.2929 11.8296 55.1183 13.937 52.6089C13.3281 57.349 12.9631 62.1173 12.8432 66.8948C12.8432 66.9261 12.8432 66.9558 12.8432 66.987C12.843 67.6677 13.0412 68.3337 13.4136 68.9034C13.786 69.4731 14.3165 69.9219 14.9401 70.1948C16.1244 70.7136 17.3461 71.1424 18.5948 71.4776C18.8676 71.5435 19.1553 71.5 19.3964 71.3566C19.6376 71.2132 19.8132 70.9811 19.8856 70.7101C19.958 70.439 19.9215 70.1503 19.784 69.9057C19.6465 69.6611 19.4187 69.48 19.1495 69.4011C18.0042 69.094 16.8838 68.7007 15.7979 68.2245C15.5508 68.1166 15.3416 67.9373 15.1974 67.7095C15.0531 67.4817 14.9804 67.2159 14.9885 66.9464C15.1322 61.2187 15.6369 55.5058 16.4995 49.8417C16.876 47.3823 17.3245 44.9448 17.8292 42.5933C18.7026 38.5308 22.0479 37.0901 24.6557 37.0901C27.1964 37.0901 29.4151 38.3292 30.6323 40.3714C29.8229 40.9604 29.0198 41.5761 28.2385 42.2089C27.8868 42.4933 27.5989 42.8485 27.3932 43.2514C27.1876 43.6542 27.0689 44.0958 27.0449 44.5475C27.0209 44.9992 27.0921 45.4509 27.2538 45.8733C27.4156 46.2957 27.6643 46.6794 27.9839 46.9995L30.5526 49.5683C30.8623 49.8778 31.2321 50.1207 31.6392 50.2819C32.0463 50.4431 32.4821 50.5193 32.9198 50.5058C33.8198 56.5823 34.2792 63.0776 34.326 66.9729C34.3259 67.2355 34.2493 67.4924 34.1056 67.7122C33.9619 67.932 33.7572 68.1051 33.5167 68.2104C30.1448 69.6854 26.6542 70.3136 23.176 70.0667C23.0335 70.053 22.8896 70.068 22.7528 70.1107C22.6161 70.1534 22.4893 70.223 22.3799 70.3154C22.2704 70.4078 22.1805 70.5212 22.1155 70.6488C22.0505 70.7764 22.0116 70.9158 22.0012 71.0586C21.9908 71.2015 22.0091 71.345 22.0549 71.4807C22.1007 71.6164 22.1732 71.7416 22.2681 71.8489C22.363 71.9562 22.4784 72.0435 22.6074 72.1056C22.7365 72.1676 22.8767 72.2033 23.0198 72.2104C26.8526 72.4823 30.676 71.7933 34.3745 70.1792C35.0123 69.9001 35.5525 69.4373 35.926 68.8498C36.2995 68.2622 36.4893 67.5767 36.4714 66.8807C36.3514 62.1027 35.9863 57.3339 35.3776 52.5933C37.4893 55.1065 38.6414 58.2872 38.6292 61.5698L38.6229 61.5682ZM37.7182 42.2589C36.4953 44.2468 35.1435 46.1524 33.6714 47.9636C33.5765 48.0812 33.4581 48.1776 33.3236 48.2465C33.1891 48.3154 33.0417 48.3552 32.8908 48.3635C32.74 48.3717 32.5891 48.3482 32.4479 48.2944C32.3067 48.2406 32.1784 48.1577 32.0714 48.0511L29.4995 45.487C29.3929 45.3801 29.3101 45.2519 29.2563 45.1109C29.2024 44.9698 29.1789 44.819 29.1872 44.6683C29.1954 44.5176 29.2353 44.3702 29.3041 44.2359C29.373 44.1016 29.4694 43.9832 29.587 43.8886C30.576 43.0886 31.5964 42.3261 32.6229 41.5964C33.5182 40.9714 34.4151 40.3776 35.287 39.8448C35.6236 39.636 36.0208 39.5467 36.4144 39.5915C36.808 39.6363 37.175 39.8125 37.4561 40.0916C37.7372 40.3707 37.916 40.7364 37.9635 41.1297C38.0111 41.523 37.9247 41.9208 37.7182 42.2589ZM39.6401 39.4464C39.2798 38.8117 38.7545 38.2864 38.1198 37.9261L45.2589 30.787L46.7792 32.3073L39.6401 39.4464Z" fill="#00C5C5"/>
<path d="M-193.29 122.46L-166.68 265.72C-164.679 273.434 -160.204 280.28 -153.94 285.208C-147.676 290.135 -139.969 292.872 -132 293H-40.6002C-32.25 292.877 -24.1968 289.883 -17.7939 284.522C-11.3909 279.16 -7.02867 271.758 -5.44022 263.56L16.5598 121.39C17.9018 115.993 18.0162 110.363 16.8947 104.916C15.7731 99.4689 13.4442 94.3425 10.0793 89.9144C6.71432 85.4864 2.39912 81.8694 -2.54866 79.3298C-7.49644 76.7902 -12.9508 75.3926 -18.5102 75.2399H-29.3302V15.2099C-29.3302 -0.721657 -35.659 -16.0007 -46.9243 -27.266C-58.1896 -38.5313 -73.4687 -44.8601 -89.4002 -44.8601C-105.332 -44.8601 -120.611 -38.5313 -131.876 -27.266C-143.141 -16.0007 -149.47 -0.721657 -149.47 15.2099V75.2799H-158.47C-164.116 75.4429 -169.65 76.8882 -174.655 79.5063C-179.659 82.1245 -184.002 85.847 -187.355 90.3918C-190.708 94.9367 -192.983 100.185 -194.008 105.739C-195.033 111.293 -194.78 117.008 -193.27 122.45L-193.29 122.46ZM-134.46 15.2099C-134.46 3.26057 -129.713 -8.19935 -121.264 -16.6488C-112.814 -25.0983 -101.355 -29.8451 -89.4052 -29.8451C-77.4559 -29.8451 -65.996 -25.0983 -57.5465 -16.6488C-49.0971 -8.19935 -44.3502 3.26057 -44.3502 15.2099V75.2799H-66.8802V60.2799C-66.8277 59.2624 -66.9827 58.2449 -67.3359 57.2892C-67.689 56.3335 -68.233 55.4597 -68.9346 54.7209C-69.6362 53.9821 -70.4808 53.3938 -71.417 52.9918C-72.3532 52.5898 -73.3614 52.3825 -74.3802 52.3825C-75.3991 52.3825 -76.4073 52.5898 -77.3434 52.9918C-78.2796 53.3938 -79.1242 53.9821 -79.8258 54.7209C-80.5274 55.4597 -81.0714 56.3335 -81.4246 57.2892C-81.7778 58.2449 -81.9328 59.2624 -81.8802 60.2799V75.2799H-96.8802V60.2799C-96.9795 58.3577 -97.813 56.5471 -99.2086 55.2217C-100.604 53.8963 -102.456 53.1573 -104.38 53.1573C-106.305 53.1573 -108.156 53.8963 -109.552 55.2217C-110.947 56.5471 -111.781 58.3577 -111.88 60.2799V75.2799H-134.46V15.2099ZM-158.46 90.2999H-18.4602C-15.1103 90.4582 -11.8396 91.3725 -8.89305 92.9742C-5.94655 94.5759 -3.40063 96.8234 -1.44597 99.5486C0.508698 102.274 1.82143 105.406 2.39391 108.71C2.96638 112.015 2.7838 115.406 1.85979 118.63L-20.1402 260.8C-21.0751 265.572 -23.6145 269.88 -27.3364 273.009C-31.0584 276.138 -35.7389 277.899 -40.6002 278H-51.8602V263C-51.8076 261.982 -51.9627 260.965 -52.3159 260.009C-52.669 259.053 -53.213 258.18 -53.9146 257.441C-54.6162 256.702 -55.4608 256.114 -56.397 255.712C-57.3332 255.31 -58.3414 255.102 -59.3602 255.102C-60.3791 255.102 -61.3873 255.31 -62.3235 255.712C-63.2596 256.114 -64.1042 256.702 -64.8058 257.441C-65.5074 258.18 -66.0514 259.053 -66.4046 260.009C-66.7578 260.965 -66.9128 261.982 -66.8602 263V278H-81.8602V263C-81.8077 261.982 -81.9627 260.965 -82.3159 260.009C-82.669 259.053 -83.213 258.18 -83.9146 257.441C-84.6162 256.702 -85.4608 256.114 -86.397 255.712C-87.3332 255.31 -88.3414 255.102 -89.3602 255.102C-90.3791 255.102 -91.3873 255.31 -92.3235 255.712C-93.2596 256.114 -94.1042 256.702 -94.8058 257.441C-95.5074 258.18 -96.0514 259.053 -96.4046 260.009C-96.7578 260.965 -96.9128 261.982 -96.8602 263V278H-111.86V263C-111.808 261.982 -111.963 260.965 -112.316 260.009C-112.669 259.053 -113.213 258.18 -113.915 257.441C-114.616 256.702 -115.461 256.114 -116.397 255.712C-117.333 255.31 -118.341 255.102 -119.36 255.102C-120.379 255.102 -121.387 255.31 -122.323 255.712C-123.26 256.114 -124.104 256.702 -124.806 257.441C-125.507 258.18 -126.051 259.053 -126.405 260.009C-126.758 260.965 -126.913 261.982 -126.86 263V278H-132C-136.574 277.898 -140.993 276.319 -144.597 273.501C-148.202 270.682 -150.798 266.775 -152 262.36L-178.66 119.12C-179.663 115.878 -179.911 112.45 -179.386 109.097C-178.86 105.744 -177.575 102.556 -175.629 99.7764C-173.683 96.9964 -171.127 94.6983 -168.156 93.0575C-165.186 91.4168 -161.88 90.477 -158.49 90.3099L-158.46 90.2999Z" fill="#00C5C5"/>
<path d="M53.2697 -157.49C41.3258 -157.477 29.8748 -152.726 21.4292 -144.281C12.9835 -135.835 8.23296 -124.384 8.21973 -112.44V7.71002C8.21973 13.6853 10.5934 19.4159 14.8186 23.6411C19.0438 27.8663 24.7744 30.24 30.7497 30.24V191.86C28.4761 193 26.5297 194.7 25.0936 196.799C23.6574 198.898 22.7786 201.328 22.5397 203.86C20.4197 228.11 18.3297 251.08 16.2797 272.19C15.9678 275.46 16.7304 278.742 18.452 281.539C20.1736 284.336 22.7602 286.495 25.8197 287.69C43.4182 294.838 63.1112 294.838 80.7097 287.69C83.7675 286.496 86.3528 284.338 88.0742 281.543C89.7957 278.748 90.5594 275.468 90.2497 272.2C88.2497 251.11 86.1097 228.14 83.9897 203.87C83.7509 201.338 82.8721 198.908 81.4359 196.809C79.9997 194.71 78.0533 193.01 75.7797 191.87V30.23C81.7551 30.23 87.4856 27.8563 91.7108 23.6311C95.936 19.4059 98.3097 13.6753 98.3097 7.70001V-112.44C98.2965 -124.384 93.5459 -135.835 85.1003 -144.281C76.6546 -152.726 65.2037 -157.477 53.2597 -157.49H53.2697ZM31.2697 273.68C33.3297 252.56 35.4097 229.57 37.6097 205.1C47.9055 202.186 58.8127 202.22 69.0897 205.2C71.2097 229.51 73.2997 252.51 75.0897 273.77C61.0333 279.471 45.3027 279.439 31.2697 273.68ZM60.8297 188.44C55.8431 187.923 50.8164 187.923 45.8297 188.44V30.23H60.8297V188.44ZM75.8297 15.21H30.7397C28.748 15.21 26.8377 14.4188 25.4294 13.0104C24.021 11.602 23.2297 9.69179 23.2297 7.70001V-112.44C23.2297 -120.406 26.3941 -128.045 32.0268 -133.678C37.6594 -139.311 45.299 -142.475 53.2647 -142.475C61.2305 -142.475 68.87 -139.311 74.5027 -133.678C80.1353 -128.045 83.2997 -120.406 83.2997 -112.44V-104.93H68.2997C67.2822 -104.983 66.2647 -104.828 65.309 -104.474C64.3533 -104.121 63.4795 -103.577 62.7407 -102.876C62.0019 -102.174 61.4136 -101.329 61.0116 -100.393C60.6096 -99.457 60.4023 -98.4488 60.4023 -97.43C60.4023 -96.4111 60.6096 -95.4029 61.0116 -94.4668C61.4136 -93.5306 62.0019 -92.686 62.7407 -91.9844C63.4795 -91.2828 64.3533 -90.7388 65.309 -90.3856C66.2647 -90.0325 67.2822 -89.8774 68.2997 -89.93H83.2997V-74.93H68.2997C67.2822 -74.9826 66.2647 -74.8275 65.309 -74.4743C64.3533 -74.1212 63.4795 -73.5772 62.7407 -72.8756C62.0019 -72.174 61.4136 -71.3294 61.0116 -70.3932C60.6096 -69.457 60.4023 -68.4488 60.4023 -67.43C60.4023 -66.4111 60.6096 -65.4029 61.0116 -64.4668C61.4136 -63.5306 62.0019 -62.686 62.7407 -61.9844C63.4795 -61.2828 64.3533 -60.7388 65.309 -60.3856C66.2647 -60.0325 67.2822 -59.8774 68.2997 -59.93H83.2997V-44.93H68.2997C67.2822 -44.9825 66.2647 -44.8275 65.309 -44.4743C64.3533 -44.1212 63.4795 -43.5772 62.7407 -42.8756C62.0019 -42.174 61.4136 -41.3294 61.0116 -40.3932C60.6096 -39.457 60.4023 -38.4488 60.4023 -37.43C60.4023 -36.4111 60.6096 -35.4029 61.0116 -34.4668C61.4136 -33.5306 62.0019 -32.686 62.7407 -31.9844C63.4795 -31.2828 64.3533 -30.7388 65.309 -30.3856C66.2647 -30.0325 67.2822 -29.8774 68.2997 -29.93H83.2997V-14.93H68.2997C67.2822 -14.9825 66.2647 -14.8275 65.309 -14.4743C64.3533 -14.1212 63.4795 -13.5772 62.7407 -12.8756C62.0019 -12.174 61.4136 -11.3294 61.0116 -10.3932C60.6096 -9.45703 60.4023 -8.44882 60.4023 -7.42998C60.4023 -6.41113 60.6096 -5.40294 61.0116 -4.46675C61.4136 -3.53056 62.0019 -2.68597 62.7407 -1.98436C63.4795 -1.28275 64.3533 -0.738815 65.309 -0.385635C66.2647 -0.0324554 67.2822 0.122589 68.2997 0.0700226H83.2997V7.58002C83.3156 8.57629 83.1332 9.56578 82.7629 10.4908C82.3926 11.4159 81.8419 12.258 81.143 12.9681C80.444 13.6783 79.6107 14.2422 78.6917 14.6271C77.7726 15.012 76.7861 15.2101 75.7897 15.21H75.8297Z" fill="#00C5C5"/>
</g>
<defs>
<clipPath id="clip0">
<rect width="80" height="80" fill="white" transform="translate(0.749023 0.0712891)"/>
</clipPath>
</defs>
</svg>
