<svg width="81" height="81" viewBox="0 0 81 81" fill="none" xmlns="http://www.w3.org/2000/svg">
<g clip-path="url(#clip0)">
<path d="M51.109 16.8582C50.8812 16.6304 50.5815 16.4887 50.261 16.4571C49.9405 16.4256 49.6189 16.5062 49.3511 16.6851C49.0833 16.8641 48.8858 17.1304 48.7923 17.4386C48.6989 17.7468 48.7152 18.0779 48.8384 18.3755C48.9617 18.673 49.1843 18.9187 49.4684 19.0705C49.7525 19.2223 50.0804 19.2709 50.3963 19.2081C50.7122 19.1452 50.9965 18.9747 51.2008 18.7258C51.4052 18.4768 51.5168 18.1646 51.5168 17.8425C51.5152 17.4736 51.3688 17.1201 51.109 16.8582Z" fill="#00C5C5"/>
<path d="M77.5318 31.2565L66.3443 14.8268C63.9956 11.3753 60.5507 8.81757 56.5674 7.56759C52.5841 6.31761 48.2955 6.44858 44.3959 7.93929L10.2927 20.9877C8.83131 21.5383 7.64468 22.641 6.98855 24.0582C6.33241 25.4754 6.25929 27.0937 6.78494 28.5643C7.25049 29.8742 8.21195 30.9489 9.46222 31.5568C10.7125 32.1647 12.1515 32.2572 13.4693 31.8143L45.0928 21.033C45.4349 20.9078 45.7144 20.6536 45.8714 20.3248C46.0285 19.9961 46.0505 19.6189 45.9328 19.2741C45.8152 18.9292 45.5672 18.6442 45.2419 18.48C44.9167 18.3158 44.5401 18.2855 44.1928 18.3955L12.5693 29.1768C11.9461 29.3886 11.2645 29.3462 10.6725 29.0586C10.0804 28.7711 9.62561 28.2616 9.40681 27.6408C9.12529 26.8546 9.16409 25.9891 9.51485 25.2312C9.86561 24.4733 10.5002 23.8836 11.2818 23.5893L45.3912 10.5471C48.7031 9.26947 52.3503 9.15218 55.7375 10.2144C59.1247 11.2766 62.0519 13.4555 64.0412 16.3955L70.9162 26.4862L70.3568 26.0924C70.2075 25.9813 70.0375 25.9012 69.8568 25.8569C69.676 25.8126 69.4883 25.8049 69.3045 25.8343C69.1208 25.8637 68.9448 25.9296 68.7869 26.0281C68.629 26.1267 68.4925 26.2558 68.3853 26.4079C68.2782 26.5601 68.2025 26.7321 68.1629 26.9139C68.1233 27.0958 68.1206 27.2837 68.1547 27.4666C68.1889 27.6495 68.2594 27.8238 68.362 27.979C68.4646 28.1342 68.5973 28.2674 68.7521 28.3705L75.5803 33.1799C75.8472 33.3657 76.1708 33.4523 76.4948 33.4246C76.8189 33.397 77.1231 33.2569 77.3548 33.0286C77.5864 32.8003 77.7309 32.4981 77.7632 32.1745C77.7956 31.8509 77.7137 31.5261 77.5318 31.2565Z" fill="#00C5C5"/>
<path d="M40.3895 50.2068C39.6878 49.104 38.6255 48.2786 37.3834 47.8712C36.1414 47.4639 34.7965 47.4998 33.5779 47.9728C32.3594 48.4459 31.3426 49.3268 30.7007 50.4655C30.0589 51.6042 29.8317 52.9302 30.0579 54.2177C30.2841 55.5051 30.9498 56.6742 31.9413 57.5259C32.9329 58.3776 34.1892 58.8591 35.496 58.8884C36.8028 58.9177 38.0793 58.493 39.1081 57.6867C40.1369 56.8803 40.8543 55.7421 41.138 54.4662C41.3012 53.742 41.3191 52.9926 41.1906 52.2615C41.0621 51.5303 40.7899 50.8319 40.3895 50.2068ZM38.4192 53.8615C38.2755 54.5083 37.9119 55.0852 37.3904 55.494C36.8689 55.9028 36.2219 56.1182 35.5594 56.1034C34.897 56.0886 34.2602 55.8445 33.7575 55.4129C33.2548 54.9812 32.9174 54.3886 32.8026 53.736C32.6879 53.0834 32.8029 52.4112 33.1282 51.834C33.4535 51.2567 33.9689 50.8101 34.5865 50.5702C35.2042 50.3303 35.8859 50.312 36.5155 50.5184C37.1452 50.7248 37.6838 51.1431 38.0395 51.7021C38.4468 52.3427 38.5833 53.1187 38.4192 53.8599V53.8615Z" fill="#00C5C5"/>
<path d="M67.8668 75.6162C67.6391 75.3885 67.3395 75.2468 67.019 75.2152C66.6985 75.1836 66.377 75.2641 66.1092 75.443C65.8414 75.6218 65.6439 75.888 65.5503 76.1961C65.4567 76.5042 65.4729 76.8352 65.5959 77.1328C65.719 77.4304 65.9415 77.6761 66.2254 77.8281C66.5093 77.9801 66.8371 78.0289 67.153 77.9663C67.4688 77.9038 67.7533 77.7336 67.9578 77.4849C68.1623 77.2361 68.2743 76.9242 68.2746 76.6022C68.2735 76.2327 68.127 75.8785 67.8668 75.6162Z" fill="#00C5C5"/>
<path d="M77.7233 72.1707L65.6249 27.0144C65.5815 26.8517 65.5089 26.6982 65.4108 26.5613L56.9733 14.8222C56.8079 14.5929 56.5767 14.4192 56.3103 14.3244C56.0439 14.2295 55.755 14.218 55.4818 14.2912C55.2087 14.3645 54.9643 14.519 54.7811 14.7344C54.5979 14.9499 54.4846 15.2159 54.4561 15.4972L53.0171 29.8847C53.0005 30.052 53.0143 30.2208 53.0577 30.3832L53.103 30.5535C52.9733 30.242 52.7349 29.9883 52.4321 29.8394C52.1293 29.6905 51.7827 29.6567 51.4569 29.7442C51.131 29.8317 50.848 30.0345 50.6605 30.315C50.473 30.5955 50.3937 30.9345 50.4374 31.2691C50.5926 32.4449 50.5145 33.6399 50.2076 34.7855C49.9007 35.9311 49.3709 37.005 48.6487 37.9458C47.9265 38.8866 47.0259 39.6758 45.9984 40.2683C44.971 40.8608 43.8368 41.2449 42.6608 41.3988C42.5786 41.4098 42.4976 41.4281 42.4186 41.4535C44.0893 40.1943 45.3958 38.5143 46.2048 36.585C47.0137 34.6558 47.2962 32.5464 47.0233 30.4722C46.9751 30.1045 46.7826 29.7709 46.4884 29.545C46.1943 29.3191 45.8224 29.2193 45.4546 29.2675C45.0868 29.3158 44.7533 29.5082 44.5273 29.8024C44.3014 30.0966 44.2016 30.4685 44.2499 30.8363C44.5202 32.8869 44.0779 34.9682 42.997 36.7317C41.9161 38.4952 40.2623 39.8339 38.3124 40.5238C39.0577 39.7685 39.6983 38.9167 40.2171 37.991C40.9794 36.6383 41.4658 35.1479 41.6481 33.606C41.8305 32.0641 41.7052 30.5013 41.2796 29.0082C41.1696 28.6639 40.9302 28.3759 40.612 28.2047C40.2937 28.0336 39.9214 27.9928 39.5736 28.0909C39.2258 28.189 38.9297 28.4183 38.7477 28.7306C38.5658 29.0428 38.5122 29.4135 38.5983 29.7644C39.2458 32.0546 38.9621 34.5079 37.809 36.5899C36.6559 38.6718 34.7269 40.2139 32.4421 40.88C26.8561 41.2894 21.6374 43.8191 17.1546 48.3394C16.7681 48.729 16.3999 49.1191 16.0499 49.5097C16.3421 48.8847 16.664 48.241 17.0202 47.6035C20.7827 40.8597 26.3155 37.4472 33.4655 37.4472H33.5296C33.8909 37.4351 34.2335 37.2831 34.4848 37.0232C34.7362 36.7632 34.8767 36.4158 34.8767 36.0543C34.8767 35.6927 34.7362 35.3453 34.4848 35.0854C34.2335 34.8255 33.8909 34.6734 33.5296 34.6613H33.4686C25.3436 34.6613 18.8202 38.6691 14.589 46.2519C11.464 51.8597 10.7015 57.3988 10.6671 57.6582C10.6258 57.9876 10.7034 58.3209 10.8861 58.5982C11.0687 58.8755 11.3443 59.0784 11.6632 59.1706C11.9822 59.2627 12.3236 59.2379 12.6259 59.1007C12.9283 58.9635 13.1717 58.7229 13.3124 58.4222C14.8284 55.403 16.8129 52.6428 19.1921 50.2441C21.4421 47.9889 23.8379 46.3066 26.3796 45.1972C25.2798 46.4642 24.4516 47.9432 23.9462 49.543C23.4408 51.1428 23.269 52.8292 23.4414 54.498C23.6138 56.1669 24.1267 57.7826 24.9484 59.2453C25.7701 60.708 26.8831 61.9865 28.2186 63.0019C25.7797 62.8132 23.3577 62.4477 20.9718 61.9082C20.6148 61.8377 20.2443 61.9096 19.9397 62.1086C19.635 62.3076 19.4203 62.6179 19.3413 62.9731C19.2623 63.3283 19.3254 63.7003 19.5171 64.0097C19.7088 64.319 20.0138 64.5411 20.3671 64.6285C24.1983 65.4816 27.815 65.9082 31.2171 65.9082C37.8296 65.9082 43.6061 64.2988 48.4686 61.091C53.2452 57.9379 56.3483 53.7379 58.3218 50.0425L64.0436 71.3957C64.0858 71.578 64.1642 71.75 64.2742 71.9014C64.3842 72.0528 64.5236 72.1805 64.6841 72.2768C64.8445 72.3732 65.0227 72.4363 65.208 72.4623C65.3934 72.4883 65.582 72.4767 65.7628 72.4282C65.9436 72.3797 66.1127 72.2953 66.2601 72.18C66.4076 72.0647 66.5303 71.9209 66.6209 71.7572C66.7116 71.5935 66.7684 71.4132 66.7878 71.227C66.8073 71.0409 66.7891 70.8527 66.7343 70.6738L56.3999 32.105C57.6652 32.3654 58.9738 32.3268 60.2216 31.9924C61.4694 31.6579 62.6219 31.0368 63.5874 30.1785L75.0311 72.891C75.0733 73.0733 75.1517 73.2453 75.2617 73.3967C75.3717 73.5481 75.5111 73.6758 75.6716 73.7722C75.832 73.8685 76.0102 73.9316 76.1955 73.9576C76.3809 73.9836 76.5695 73.972 76.7503 73.9235C76.9311 73.875 77.1002 73.7906 77.2476 73.6753C77.3951 73.56 77.5178 73.4162 77.6084 73.2525C77.6991 73.0888 77.7559 72.9085 77.7753 72.7223C77.7948 72.5362 77.7766 72.348 77.7218 72.1691L77.7233 72.1707ZM50.8483 39.6441C51.796 38.4164 52.4911 37.0131 52.8933 35.5153C53.2956 34.0175 53.3972 32.4548 53.1921 30.9175L55.8483 40.8363C53.5714 41.2683 51.2646 41.5243 48.9483 41.6019C49.6574 41.0248 50.2976 40.3679 50.8561 39.6441H50.8483ZM44.8608 55.2925C44.3848 57.4294 43.1826 59.3351 41.4591 60.685C39.7355 62.0348 37.5972 62.7452 35.4086 62.6952C33.2199 62.6452 31.1163 61.8379 29.4562 60.4107C27.796 58.9836 26.6821 57.025 26.3042 54.8686C25.9263 52.7122 26.3078 50.4915 27.3837 48.5849C28.4596 46.6783 30.1633 45.2037 32.2046 44.4124C34.2458 43.6211 36.4982 43.5621 38.5781 44.2454C40.658 44.9287 42.4366 46.3121 43.6108 48.1597C44.2804 49.207 44.7356 50.3766 44.9501 51.601C45.1647 52.8253 45.1343 54.08 44.8608 55.2925ZM56.5796 43.5347L57.2046 45.8785C55.4561 50.0832 52.2046 55.4879 46.3671 59.1129C46.9193 58.1004 47.3264 57.0153 47.5765 55.8894C47.9297 54.3196 47.9682 52.6952 47.6895 51.1104C47.4108 49.5256 46.8206 48.0118 45.953 46.6566C45.4255 45.8297 44.8013 45.0686 44.0936 44.3894C49.6124 44.5847 53.7358 44.1082 56.578 43.5347H56.5796ZM55.8983 29.0332L56.8577 19.4347L62.4827 27.2675C61.7427 28.2583 60.6909 28.9711 59.4965 29.2914C58.3021 29.6117 57.0347 29.5207 55.8983 29.0332Z" fill="#00C5C5"/>
<path d="M234.46 27L165.74 -73.92C151.308 -95.1206 130.143 -110.83 105.672 -118.505C81.2005 -126.18 54.855 -125.371 30.9004 -116.21L-178.61 -36.0701C-187.591 -32.6898 -194.884 -25.9156 -198.917 -17.2079C-202.95 -8.50016 -203.4 1.4437 -200.17 10.4799C-197.316 18.5443 -191.405 25.1624 -183.713 28.9046C-176.021 32.6469 -167.165 33.2127 -159.06 30.4799L-73.2496 1.20996C-71.135 0.450546 -69.4039 -1.10978 -68.4296 -3.13432C-67.4553 -5.15887 -67.316 -7.4853 -68.0419 -9.6116C-68.7677 -11.7379 -70.3004 -13.4936 -72.3093 -14.4998C-74.3181 -15.506 -76.642 -15.6821 -78.7796 -14.9901L-164.58 14.24C-168.408 15.5274 -172.589 15.2594 -176.221 13.4937C-179.854 11.7279 -182.647 8.60576 -184 4.79996C-185.727 -0.0306702 -185.488 -5.34663 -183.333 -10.0024C-181.178 -14.6581 -177.28 -18.2809 -172.48 -20.09L37.0004 -100.22C57.348 -108.069 79.7551 -108.789 100.565 -102.264C121.375 -95.7384 139.358 -82.3522 151.58 -64.29L193.79 -2.29004L118.04 -55.64C110.181 -61.1587 101.131 -64.7457 91.6245 -66.1097C82.1183 -67.4737 72.4245 -66.5761 63.3304 -63.49L-10.9996 -38.14C-13.1141 -37.3806 -14.8453 -35.8203 -15.8196 -33.7958C-16.7939 -31.7712 -16.9332 -29.4448 -16.2073 -27.3185C-15.4815 -25.1922 -13.9488 -23.4365 -11.9399 -22.4303C-9.93105 -21.424 -7.60712 -21.248 -5.46959 -21.94L68.8704 -47.29C75.4078 -49.5086 82.3763 -50.1541 89.21 -49.1742C96.0437 -48.1942 102.55 -45.6164 108.2 -41.65L222.47 38.83C224.109 39.9784 226.099 40.5163 228.093 40.3502C230.088 40.1841 231.961 39.3244 233.387 37.9207C234.813 36.5169 235.703 34.6578 235.901 32.6663C236.099 30.6749 235.593 28.677 234.47 27.02L234.46 27Z" fill="#00C5C5"/>
<path d="M145.22 27.6601C144.011 26.6541 142.548 26.0005 140.992 25.7712C139.437 25.5419 137.848 25.7456 136.4 26.3601C119.4 33.5801 105.29 38.7001 85.1698 42.1401C85.7918 36.396 85.7247 30.5982 84.9698 24.8701C84.6741 22.6158 83.495 20.5712 81.6918 19.1863C79.8886 17.8013 77.6092 17.1894 75.3548 17.4851C73.1005 17.7808 71.056 18.96 69.671 20.7631C68.2861 22.5663 67.6741 24.8458 67.9698 27.1001C68.7324 32.906 68.567 38.7962 67.4798 44.5501C61.0398 45.2401 53.9798 45.8101 46.1498 46.2801C47.7648 38.3591 48.0487 30.2244 46.9898 22.2101C46.6941 19.9558 45.515 17.9112 43.7118 16.5263C41.9086 15.1413 39.6292 14.5294 37.3748 14.8251C35.1205 15.1208 33.0759 16.3 31.691 18.1031C30.306 19.9063 29.6941 22.1858 29.9898 24.4401C30.9961 32.0331 30.4173 39.7522 28.2898 47.1101C23.4565 47.2834 18.3565 47.4268 12.9898 47.5401C15.3291 36.1641 14.8935 24.3921 11.7198 13.2201C11.4152 12.138 10.9003 11.1265 10.2048 10.2434C9.5092 9.36026 8.6465 8.62278 7.66591 8.07306C6.68532 7.52333 5.60606 7.17214 4.48975 7.03952C3.37343 6.90689 2.24193 6.99544 1.15984 7.30011C0.0777435 7.60477 -0.933746 8.11959 -1.81688 8.81517C-2.70001 9.51074 -3.43748 10.3734 -3.98721 11.354C-4.53694 12.3346 -4.88814 13.4139 -5.02077 14.5302C-5.1534 15.6465 -5.06483 16.778 -4.76016 17.8601C-1.96568 27.6616 -1.94147 38.0457 -4.69017 47.8601C-14.2602 47.9601 -24.6102 47.9901 -35.8802 47.9601H-36.2902C-86.1802 47.9601 -126.29 72.5801 -152.29 119.17C-164.246 140.973 -172.368 164.667 -176.3 189.22C-176.597 191.268 -176.142 193.353 -175.02 195.091C-173.897 196.829 -172.184 198.102 -170.196 198.674C-168.207 199.246 -166.079 199.079 -164.205 198.203C-162.331 197.327 -160.837 195.802 -160 193.91C-150.687 175.362 -138.496 158.406 -123.88 143.67C-110.034 129.79 -95.3002 119.457 -79.6802 112.67C-86.4401 120.443 -91.5336 129.519 -94.6457 139.339C-97.7578 149.159 -98.8224 159.512 -97.7736 169.76C-96.7247 180.007 -93.5848 189.93 -88.548 198.916C-83.5111 207.901 -76.6845 215.758 -68.4902 222C-83.4686 220.851 -98.3442 218.618 -113 215.32C-114.122 214.999 -115.298 214.91 -116.455 215.06C-117.612 215.21 -118.727 215.595 -119.73 216.191C-120.733 216.787 -121.604 217.582 -122.288 218.527C-122.973 219.472 -123.457 220.547 -123.711 221.686C-123.965 222.825 -123.984 224.004 -123.765 225.15C-123.547 226.297 -123.097 227.386 -122.442 228.352C-121.787 229.318 -120.942 230.14 -119.958 230.767C-118.974 231.395 -117.872 231.814 -116.72 232C-93.1802 237.233 -70.9568 239.847 -50.0502 239.84C-9.14018 239.84 26.5498 229.84 56.5498 209.84C90.7298 187.07 110.55 155.44 121.22 132.92C131.6 110.92 135.44 93.3501 136.22 89.5501C136.22 89.4201 136.3 89.3001 136.33 89.1601L148.13 36.0701C148.462 34.5362 148.367 32.9405 147.854 31.4572C147.34 29.974 146.429 28.6604 145.22 27.6601ZM32.6398 75.8801C35.5583 72.0845 38.0971 68.0117 40.2198 63.7201C47.6498 63.3501 54.4898 62.8901 60.8398 62.3301C56.5781 69.6316 50.7018 75.8609 43.6611 80.5409C36.6203 85.2208 28.6019 88.2273 20.2198 89.3301C19.7141 89.399 19.2154 89.5128 18.7298 89.6701C23.9663 85.7208 28.6453 81.0822 32.6398 75.8801ZM5.25983 68.4101C5.92982 67.2101 6.55983 66.0001 7.15984 64.7701C11.5265 64.6968 15.7298 64.6034 19.7698 64.4901C19.5298 64.8101 19.3098 65.1401 19.0698 65.4901C12.5518 74.0141 3.68517 80.4477 -6.44017 84.0001C-1.85654 79.3511 2.082 74.1076 5.26984 68.4101H5.25983ZM-136.43 132C-138.804 134.393 -141.067 136.79 -143.22 139.19C-141.42 135.32 -139.44 131.4 -137.22 127.48C-114.14 86.0001 -80.1502 65.0001 -36.2202 65.0001H-35.8502C-27.7302 65.0001 -20.0702 65.0001 -12.8502 65.0001C-20.0617 75.2241 -30.5403 82.6872 -42.5602 86.1601C-76.8302 88.6701 -108.89 104.21 -136.43 132ZM33.7598 174.69C31.2692 185.922 25.5031 196.164 17.191 204.118C8.87891 212.073 -1.60576 217.384 -12.9367 219.379C-24.2676 221.374 -35.9356 219.963 -46.4646 215.326C-56.9937 210.688 -65.9108 203.032 -72.0878 193.325C-78.2648 183.619 -81.4243 172.299 -81.1665 160.796C-80.9086 149.294 -77.2451 138.127 -70.6394 128.707C-64.0336 119.287 -54.7824 112.038 -44.0561 107.877C-33.3298 103.716 -21.6103 102.829 -10.3802 105.33C4.65836 108.693 17.7499 117.882 26.0242 130.882C34.2984 143.882 37.0803 159.632 33.7598 174.68V174.69ZM47.0598 195.63C45.7265 196.523 44.3732 197.393 42.9998 198.24C50.9686 183.715 53.9161 166.964 51.3844 150.591C48.8527 134.218 40.9835 119.14 28.9998 107.7C70.9998 109.19 99.6098 104.33 115.68 100.22C108.57 122.83 89.8798 167.08 47.0598 195.61V195.63ZM120.61 80.9201C112.69 83.5701 92.3698 89.1601 58.9398 90.5201C68.7837 82.4309 76.3433 71.9101 80.8698 60.0001C96.9242 57.7834 112.686 53.8061 127.87 48.1401L120.61 80.9201Z" fill="#00C5C5"/>
</g>
<defs>
<clipPath id="clip0">
<rect width="80" height="80" fill="white" transform="translate(0.5 0.908203)"/>
</clipPath>
</defs>
</svg>
