<svg width="81" height="81" viewBox="0 0 81 81" fill="none" xmlns="http://www.w3.org/2000/svg">
<path d="M12.1166 26.0349C11.5995 26.3662 10.9151 26.7677 10.2713 27.2255C9.62758 27.6834 8.96196 27.9052 8.32446 27.2818C7.68696 26.6584 7.85571 26.0146 8.32446 25.3412C10.3291 22.4677 10.3338 20.8974 8.34008 18.0771C7.87133 17.4099 7.68852 16.7615 8.31508 16.1365C8.94164 15.5115 9.59789 15.7099 10.2588 16.1755C13.101 18.1787 14.4948 17.9459 17.5698 16.2505C19.026 15.4474 20.6432 14.8443 22.0541 13.9068C22.3963 13.6755 22.787 13.4224 22.9823 13.0802C24.9166 9.68492 28.1026 8.4771 31.712 7.89117C37.2729 6.99429 41.8338 9.09898 45.9932 12.4974C46.3057 12.7537 46.6182 13.0146 46.9307 13.2787L47.3307 13.0084C46.862 12.1084 46.4729 11.1662 45.9245 10.3224C45.4557 9.6021 44.9651 8.9271 45.6838 8.17085C46.4526 7.36148 47.1885 7.79742 47.9213 8.35992C50.1651 10.0787 52.4526 10.0865 54.6729 8.35992C55.4026 7.79429 56.1338 7.34585 56.9026 8.1646C57.6166 8.92398 57.1651 9.62398 56.637 10.3084C54.8974 12.5677 54.9187 14.8531 56.701 17.1646C57.2526 17.8771 57.5729 18.5927 56.8292 19.3005C56.1448 19.9521 55.4448 19.6771 54.7979 19.1271C53.876 18.3459 52.8745 17.7537 51.3338 17.9068C52.0135 18.7927 52.4776 19.6834 53.187 20.2787C56.5229 23.0755 57.4885 26.7396 57.2807 30.8787C57.2682 31.1302 57.2807 31.3818 57.2807 31.9459C57.9291 31.524 58.4448 31.238 58.9057 30.8802C59.5495 30.3802 60.1995 30.1849 60.8479 30.7896C61.551 31.4459 61.351 32.1162 60.8292 32.8209C58.8229 35.5162 58.8338 37.2584 60.8666 40.0521C61.3526 40.7193 61.5291 41.363 60.8807 41.9787C60.2323 42.5943 59.6151 42.3959 58.9307 41.9427C58.0463 41.3584 57.0885 40.8896 56.4026 40.5052C55.0682 43.0052 54.0995 45.3849 52.626 47.3943C51.4495 48.9974 50.6667 50.5193 50.3026 52.5084C49.5807 56.4771 47.4338 59.8177 44.6463 62.7021C43.8792 63.4959 43.5135 64.2943 43.5307 65.3865C43.5682 67.8474 43.4791 70.299 45.001 72.4787C45.2338 72.8115 45.0229 73.7662 44.6885 74.113C44.101 74.7193 43.3401 74.4521 42.8135 73.8287C41.512 72.3005 41.1838 70.4209 40.9838 68.5162C40.9057 67.7693 40.8885 67.0146 40.8276 65.999C36.6776 68.2849 32.6338 68.3693 28.4526 65.999C28.387 66.7568 28.3916 67.338 28.2791 67.8959C27.9666 69.424 27.6745 70.9584 27.2588 72.4584C27.1026 73.0005 26.7448 73.6318 26.2885 73.9005C25.801 74.1865 24.9073 74.3521 24.5323 74.088C24.1916 73.849 24.0213 72.7615 24.2745 72.3849C25.976 69.8584 25.6932 67.0427 25.6276 64.2599C25.6198 63.9052 25.2838 63.5005 25.0026 63.2177C22.2151 60.4365 20.2854 57.1521 19.0651 53.4146C18.8698 52.813 18.3916 52.2599 17.9307 51.7959C14.337 48.1865 11.8885 44.0412 12.5682 38.7724C12.8463 36.6146 12.5448 34.6599 12.2041 32.5802C11.8635 30.5005 12.1166 28.3209 12.1166 26.0349ZM47.976 49.3162C47.7698 48.6818 47.5495 47.4084 46.9713 46.3271C44.8495 42.3584 41.6401 39.349 38.0526 36.7318C33.9635 33.749 32.6791 33.8646 28.9338 37.338C24.9276 41.0521 22.901 45.8505 21.4807 50.9724C21.3733 51.4689 21.403 51.9853 21.5666 52.4662C22.987 57.0193 25.5557 60.7709 29.5354 63.4505C31.4885 64.763 33.6479 65.4302 36.0448 64.9505C39.1166 64.3349 41.3995 62.4724 43.3416 60.174C45.8416 57.2271 47.8041 53.9959 47.976 49.3193V49.3162ZM46.351 16.4849C42.4448 12.7224 38.2651 9.71773 32.4448 10.5005C30.0666 10.813 27.7573 11.3943 26.0901 13.313C25.7541 13.7021 25.4135 14.463 25.5729 14.8443C26.8432 17.874 28.776 20.2709 32.0588 21.3662C34.3838 22.1474 36.7276 22.9287 38.9338 23.9802C43.2291 26.038 46.787 28.9693 48.9573 33.3552C49.3823 34.2115 49.5463 35.038 48.5713 35.5427C47.5963 36.0474 47.0088 35.4896 46.5604 34.6146C43.4057 28.4068 37.6245 25.9677 31.501 23.9459C30.2307 26.8646 31.4838 29.8834 34.501 31.5318C35.7276 32.199 36.9854 32.8224 38.151 33.5834C43.112 36.8209 47.2776 40.8318 50.1979 46.4912L52.9588 41.5287L52.6557 41.3021C52.4431 41.3997 52.2393 41.5152 52.0463 41.6474C51.3526 42.2084 50.6088 42.7271 49.7979 41.9599C48.912 41.1162 49.5276 40.374 50.087 39.6318C51.6901 37.5052 51.6323 35.1755 49.9135 32.9849C49.3651 32.2849 49.0041 31.5787 49.7182 30.8427C50.4323 30.1068 51.1245 30.4646 51.8541 30.9896C52.5838 31.5146 53.3885 31.8865 54.4026 32.4615C54.7885 28.9693 54.726 25.988 52.5432 23.4505C51.3588 22.0724 50.1573 20.7099 48.9495 19.3474C48.7406 19.138 48.5194 18.9413 48.287 18.7584C47.4682 19.3834 46.6557 20.2255 45.7041 19.2396C44.6885 18.1849 45.8135 17.4209 46.3526 16.488L46.351 16.4849ZM31.1948 32.4787C28.5182 29.913 27.6713 26.9505 28.6948 23.4834C28.7588 23.263 28.6463 22.8443 28.4729 22.7209C26.1852 21.1247 24.3721 18.9391 23.226 16.3959C21.2245 17.4302 19.7432 18.8537 18.5385 20.549C18.2057 21.0177 17.937 21.774 18.0698 22.2818C18.3774 23.3195 18.823 24.3112 19.3948 25.2302C19.826 25.9599 20.1338 26.6115 19.4354 27.2724C18.737 27.9334 18.0495 27.7084 17.3963 27.1427C17.1416 26.9224 16.8604 26.7287 16.5854 26.5318C15.8651 26.0177 15.387 26.1224 15.0854 27.024C14.3291 29.2818 14.4901 31.4943 15.2666 33.8709C18.1354 32.4224 20.5151 30.6099 22.212 27.9834C23.1666 26.5052 23.8151 26.1162 24.6245 26.6193C25.4338 27.1224 25.4057 28.0084 24.487 29.4193C22.5416 32.4115 19.8323 34.5287 16.7198 36.1943C16.2291 36.4568 15.6432 36.8443 15.4541 37.3146C14.1182 40.638 16.1276 46.8615 19.2041 48.9099C21.4026 42.1599 24.5823 36.1037 31.1963 32.4818L31.1948 32.4787ZM52.651 12.3834H49.9776V14.9771H52.651V12.3834ZM15.2229 20.4068H12.5666V23.063H15.2229V20.4068ZM53.9573 37.7787H56.6385V35.0802H53.9573V37.7787Z" fill="#00C5C5"/>
<path d="M55.7075 61.0192C55.7841 60.6583 55.8637 60.3349 55.92 60.0067C56.3887 57.4333 58.2419 55.8395 60.8512 55.7598C63.6794 55.6739 64.1762 55.0786 64.1075 52.2224C64.0934 51.6645 64.4591 50.8567 64.9012 50.6052C65.2372 50.4145 66.1512 50.7614 66.4981 51.1474C68.7919 53.7208 70.3106 56.6317 70.0012 60.227C69.988 60.3955 69.988 60.5648 70.0012 60.7333C70.0159 60.8022 70.0429 60.8678 70.0809 60.927C70.8715 61.1348 71.6809 61.2395 72.3934 61.552C73.8278 62.1989 74.5809 63.3895 74.6247 64.9677C74.6684 66.6598 74.6715 68.3552 74.6544 70.0489C74.6262 72.9317 73.0825 74.4552 70.1231 74.4723C65.6356 74.4989 61.1434 74.3723 56.6591 74.5067C52.2028 74.6395 50.2934 73.2723 50.6294 68.3317C50.6919 67.4036 50.6387 66.4692 50.6481 65.538C50.6794 62.8161 52.1231 61.2833 54.8153 61.1036C55.0903 61.0864 55.3794 61.0505 55.7075 61.0192ZM62.6637 63.8317V63.8411C60.1216 63.8411 57.5794 63.8567 55.0387 63.8411C53.9606 63.8317 53.32 64.2677 53.3091 65.3833C53.2841 66.9927 53.2778 68.6036 53.2981 70.213C53.3122 71.3067 53.9231 71.8114 55.0028 71.8114C60.0872 71.8114 65.171 71.8114 70.2544 71.8114C71.4044 71.8114 71.9919 71.2692 71.995 70.1177C71.995 68.5927 72.0231 67.0661 71.995 65.5427C71.9653 64.2458 71.5262 63.8489 70.17 63.8427C67.6622 63.8192 65.1637 63.8286 62.6637 63.8286V63.8317ZM66.6262 55.9349C65.595 56.7161 64.8169 57.5552 63.8575 57.9661C62.9294 58.3692 61.8169 58.3817 60.7794 58.4927C59.1716 58.663 58.3809 59.6317 58.795 61.1036H64.7216C67.4106 61.1036 67.7903 60.6349 67.2309 57.9224C67.0903 57.238 66.8262 56.5802 66.6262 55.9317V55.9349Z" fill="#00C5C5"/>
<path d="M62.7195 69.1379H57.7804C56.8429 69.1379 56.0101 68.891 56.0226 67.7848C56.0351 66.6785 56.8867 66.4566 57.8117 66.4551C61.0231 66.4551 64.2346 66.4551 67.446 66.4551C68.3617 66.4551 69.2351 66.6566 69.2617 67.7613C69.2898 68.9551 68.3851 69.1504 67.4148 69.1488C65.8476 69.1363 64.2835 69.1395 62.7195 69.1379Z" fill="#00C5C5"/>
</svg>
