<svg width="29" height="30" viewBox="0 0 29 30" fill="none" xmlns="http://www.w3.org/2000/svg">
<g clip-path="url(#clip0)">
<path d="M14.0783 29.0648C21.8408 29.0648 28.156 22.7493 28.156 14.9867C28.156 7.22421 21.8408 0.908752 14.0783 0.908752C6.31582 0.908752 0.000488281 7.22421 0.000488281 14.9867C0.000488281 22.7493 6.31582 29.0648 14.0783 29.0648ZM14.0783 2.83592C20.7782 2.83592 26.2289 8.28672 26.229 14.9867C26.229 21.6867 20.7783 27.1375 14.0783 27.1376C7.37846 27.1375 1.92778 21.6867 1.92778 14.9866C1.92778 8.28685 7.37846 2.83592 14.0783 2.83592Z" fill="#00C6C6"/>
<path d="M12.1877 21.0165C12.564 21.3926 13.1741 21.3925 13.5503 21.0165C13.9267 20.64 13.9267 20.03 13.5502 19.6536L9.84745 15.951L20.5698 15.9499C21.102 15.9498 21.5333 15.5185 21.5333 14.9861C21.5332 14.4539 21.1019 14.0228 20.5697 14.0228L9.84693 14.0238L13.5506 10.3204C13.9269 9.9441 13.9269 9.33383 13.5506 8.95765C13.3623 8.76956 13.1158 8.67538 12.8691 8.67538C12.6226 8.67538 12.376 8.76956 12.1878 8.95752L6.8394 14.3058C6.65863 14.4864 6.55713 14.7314 6.55713 14.9871C6.55726 15.2428 6.65876 15.4877 6.83952 15.6687L12.1877 21.0165Z" fill="#00C6C6"/>
</g>
<defs>
<clipPath id="clip0">
<rect width="28.1561" height="28.1561" fill="white" transform="translate(0 0.908752)"/>
</clipPath>
</defs>
</svg>
