<svg width="28" height="28" viewBox="0 0 28 28" fill="none" xmlns="http://www.w3.org/2000/svg">
<g clip-path="url(#clip0)">
<path d="M14.4072 27.5793C6.9124 27.5793 0.814989 21.4817 0.814989 13.9867C0.814989 6.49194 6.9124 0.394287 14.4072 0.394287C21.902 0.394287 27.9995 6.49194 27.9995 13.9867C27.9995 21.4817 21.902 27.5793 14.4072 27.5793ZM14.4072 2.25499C7.93839 2.25499 2.6757 7.51781 2.67557 13.9867C2.67557 20.4557 7.93826 25.7185 14.4072 25.7186C20.876 25.7185 26.1387 20.4557 26.1387 13.9866C26.1387 7.51793 20.876 2.25499 14.4072 2.25499Z" fill="#00C6C6"/>
<path d="M16.2326 19.8085C15.8693 20.1717 15.2802 20.1716 14.9169 19.8085C14.5535 19.4451 14.5535 18.8561 14.9171 18.4926L18.4921 14.9177L8.13951 14.9167C7.62571 14.9166 7.20928 14.5002 7.20928 13.9861C7.20941 13.4723 7.62583 13.056 8.13964 13.056L18.4926 13.057L14.9167 9.48136C14.5534 9.11803 14.5534 8.52881 14.9167 8.1656C15.0984 7.98399 15.3365 7.89307 15.5746 7.89307C15.8127 7.89307 16.0507 7.98399 16.2325 8.16547L21.3964 13.3293C21.5709 13.5037 21.6689 13.7403 21.6689 13.9871C21.6688 14.234 21.5708 14.4704 21.3963 14.6452L16.2326 19.8085Z" fill="#00C6C6"/>
</g>
<defs>
<clipPath id="clip0">
<rect width="27.185" height="27.185" fill="white" transform="matrix(-1 0 0 1 28 0.394287)"/>
</clipPath>
</defs>
</svg>
