<svg width="31" height="32" viewBox="0 0 31 32" fill="none" xmlns="http://www.w3.org/2000/svg">
<rect width="31" height="31" transform="translate(0 0.585205)" fill="#00C6C6"/>
<path d="M21.3125 0.585205H9.6875C4.33806 0.585205 0 4.92327 0 10.2727V21.8977C0 27.2471 4.33806 31.5852 9.6875 31.5852H21.3125C26.6619 31.5852 31 27.2471 31 21.8977V10.2727C31 4.92327 26.6619 0.585205 21.3125 0.585205ZM28.0938 21.8977C28.0938 25.6371 25.0519 28.679 21.3125 28.679H9.6875C5.94812 28.679 2.90625 25.6371 2.90625 21.8977V10.2727C2.90625 6.53333 5.94812 3.49146 9.6875 3.49146H21.3125C25.0519 3.49146 28.0938 6.53333 28.0938 10.2727V21.8977Z" fill="white"/>
<path d="M15.5 8.33521C11.2201 8.33521 7.75 11.8053 7.75 16.0852C7.75 20.3651 11.2201 23.8352 15.5 23.8352C19.7799 23.8352 23.25 20.3651 23.25 16.0852C23.25 11.8053 19.7799 8.33521 15.5 8.33521ZM15.5 20.929C12.8301 20.929 10.6562 18.7551 10.6562 16.0852C10.6562 13.4134 12.8301 11.2415 15.5 11.2415C18.1699 11.2415 20.3438 13.4134 20.3438 16.0852C20.3438 18.7551 18.1699 20.929 15.5 20.929Z" fill="white"/>
<path d="M23.8315 8.78656C24.4019 8.78656 24.8642 8.32421 24.8642 7.75388C24.8642 7.18354 24.4019 6.72119 23.8315 6.72119C23.2612 6.72119 22.7988 7.18354 22.7988 7.75388C22.7988 8.32421 23.2612 8.78656 23.8315 8.78656Z" fill="white"/>
</svg>
